%TF.GenerationSoftware,KiCad,Pcbnew,8.0.5*%
%TF.CreationDate,2024-12-19T13:56:02+01:00*%
%TF.ProjectId,TEEKeeper_V1.0,5445454b-6565-4706-9572-5f56312e302e,rev?*%
%TF.SameCoordinates,PX7b0df40PY6e75580*%
%TF.FileFunction,Legend,Bot*%
%TF.FilePolarity,Positive*%
%FSLAX46Y46*%
G04 Gerber Fmt 4.6, Leading zero omitted, Abs format (unit mm)*
G04 Created by KiCad (PCBNEW 8.0.5) date 2024-12-19 13:56:02*
%MOMM*%
%LPD*%
G01*
G04 APERTURE LIST*
%ADD10C,0.100000*%
%ADD11C,0.300000*%
%ADD12C,0.150000*%
%ADD13C,0.120000*%
G04 APERTURE END LIST*
D10*
X83820000Y70104000D02*
X97536000Y70104000D01*
X97536000Y60960000D01*
X83820000Y60960000D01*
X83820000Y70104000D01*
X86360000Y41148000D02*
X102108000Y41148000D01*
X102108000Y29464000D01*
X86360000Y29464000D01*
X86360000Y41148000D01*
D11*
X51441748Y77219067D02*
X54489368Y77219067D01*
X52965558Y78742877D02*
X52965558Y75695258D01*
X59441748Y77219067D02*
X62489368Y77219067D01*
D10*
X91310782Y66269335D02*
X91167925Y66221716D01*
X91167925Y66221716D02*
X91120306Y66174097D01*
X91120306Y66174097D02*
X91072687Y66078859D01*
X91072687Y66078859D02*
X91072687Y65936002D01*
X91072687Y65936002D02*
X91120306Y65840764D01*
X91120306Y65840764D02*
X91167925Y65793144D01*
X91167925Y65793144D02*
X91263163Y65745525D01*
X91263163Y65745525D02*
X91644115Y65745525D01*
X91644115Y65745525D02*
X91644115Y66745525D01*
X91644115Y66745525D02*
X91310782Y66745525D01*
X91310782Y66745525D02*
X91215544Y66697906D01*
X91215544Y66697906D02*
X91167925Y66650287D01*
X91167925Y66650287D02*
X91120306Y66555049D01*
X91120306Y66555049D02*
X91120306Y66459811D01*
X91120306Y66459811D02*
X91167925Y66364573D01*
X91167925Y66364573D02*
X91215544Y66316954D01*
X91215544Y66316954D02*
X91310782Y66269335D01*
X91310782Y66269335D02*
X91644115Y66269335D01*
X90215544Y65745525D02*
X90215544Y66269335D01*
X90215544Y66269335D02*
X90263163Y66364573D01*
X90263163Y66364573D02*
X90358401Y66412192D01*
X90358401Y66412192D02*
X90548877Y66412192D01*
X90548877Y66412192D02*
X90644115Y66364573D01*
X90215544Y65793144D02*
X90310782Y65745525D01*
X90310782Y65745525D02*
X90548877Y65745525D01*
X90548877Y65745525D02*
X90644115Y65793144D01*
X90644115Y65793144D02*
X90691734Y65888383D01*
X90691734Y65888383D02*
X90691734Y65983621D01*
X90691734Y65983621D02*
X90644115Y66078859D01*
X90644115Y66078859D02*
X90548877Y66126478D01*
X90548877Y66126478D02*
X90310782Y66126478D01*
X90310782Y66126478D02*
X90215544Y66174097D01*
X89739353Y65745525D02*
X89739353Y66412192D01*
X89739353Y66221716D02*
X89691734Y66316954D01*
X89691734Y66316954D02*
X89644115Y66364573D01*
X89644115Y66364573D02*
X89548877Y66412192D01*
X89548877Y66412192D02*
X89453639Y66412192D01*
X89120305Y65745525D02*
X89120305Y66412192D01*
X89120305Y66221716D02*
X89072686Y66316954D01*
X89072686Y66316954D02*
X89025067Y66364573D01*
X89025067Y66364573D02*
X88929829Y66412192D01*
X88929829Y66412192D02*
X88834591Y66412192D01*
X88120305Y65793144D02*
X88215543Y65745525D01*
X88215543Y65745525D02*
X88406019Y65745525D01*
X88406019Y65745525D02*
X88501257Y65793144D01*
X88501257Y65793144D02*
X88548876Y65888383D01*
X88548876Y65888383D02*
X88548876Y66269335D01*
X88548876Y66269335D02*
X88501257Y66364573D01*
X88501257Y66364573D02*
X88406019Y66412192D01*
X88406019Y66412192D02*
X88215543Y66412192D01*
X88215543Y66412192D02*
X88120305Y66364573D01*
X88120305Y66364573D02*
X88072686Y66269335D01*
X88072686Y66269335D02*
X88072686Y66174097D01*
X88072686Y66174097D02*
X88548876Y66078859D01*
X87501257Y65745525D02*
X87596495Y65793144D01*
X87596495Y65793144D02*
X87644114Y65888383D01*
X87644114Y65888383D02*
X87644114Y66745525D01*
X91215544Y64183200D02*
X91310782Y64135581D01*
X91310782Y64135581D02*
X91501258Y64135581D01*
X91501258Y64135581D02*
X91596496Y64183200D01*
X91596496Y64183200D02*
X91644115Y64230820D01*
X91644115Y64230820D02*
X91691734Y64326058D01*
X91691734Y64326058D02*
X91691734Y64611772D01*
X91691734Y64611772D02*
X91644115Y64707010D01*
X91644115Y64707010D02*
X91596496Y64754629D01*
X91596496Y64754629D02*
X91501258Y64802248D01*
X91501258Y64802248D02*
X91310782Y64802248D01*
X91310782Y64802248D02*
X91215544Y64754629D01*
X90644115Y64135581D02*
X90739353Y64183200D01*
X90739353Y64183200D02*
X90786972Y64230820D01*
X90786972Y64230820D02*
X90834591Y64326058D01*
X90834591Y64326058D02*
X90834591Y64611772D01*
X90834591Y64611772D02*
X90786972Y64707010D01*
X90786972Y64707010D02*
X90739353Y64754629D01*
X90739353Y64754629D02*
X90644115Y64802248D01*
X90644115Y64802248D02*
X90501258Y64802248D01*
X90501258Y64802248D02*
X90406020Y64754629D01*
X90406020Y64754629D02*
X90358401Y64707010D01*
X90358401Y64707010D02*
X90310782Y64611772D01*
X90310782Y64611772D02*
X90310782Y64326058D01*
X90310782Y64326058D02*
X90358401Y64230820D01*
X90358401Y64230820D02*
X90406020Y64183200D01*
X90406020Y64183200D02*
X90501258Y64135581D01*
X90501258Y64135581D02*
X90644115Y64135581D01*
X89882210Y64802248D02*
X89882210Y64135581D01*
X89882210Y64707010D02*
X89834591Y64754629D01*
X89834591Y64754629D02*
X89739353Y64802248D01*
X89739353Y64802248D02*
X89596496Y64802248D01*
X89596496Y64802248D02*
X89501258Y64754629D01*
X89501258Y64754629D02*
X89453639Y64659391D01*
X89453639Y64659391D02*
X89453639Y64135581D01*
X88977448Y64802248D02*
X88977448Y64135581D01*
X88977448Y64707010D02*
X88929829Y64754629D01*
X88929829Y64754629D02*
X88834591Y64802248D01*
X88834591Y64802248D02*
X88691734Y64802248D01*
X88691734Y64802248D02*
X88596496Y64754629D01*
X88596496Y64754629D02*
X88548877Y64659391D01*
X88548877Y64659391D02*
X88548877Y64135581D01*
X92326782Y24105335D02*
X92660115Y24105335D01*
X92660115Y23581525D02*
X92660115Y24581525D01*
X92660115Y24581525D02*
X92183925Y24581525D01*
X91660115Y23581525D02*
X91755353Y23629144D01*
X91755353Y23629144D02*
X91802972Y23676764D01*
X91802972Y23676764D02*
X91850591Y23772002D01*
X91850591Y23772002D02*
X91850591Y24057716D01*
X91850591Y24057716D02*
X91802972Y24152954D01*
X91802972Y24152954D02*
X91755353Y24200573D01*
X91755353Y24200573D02*
X91660115Y24248192D01*
X91660115Y24248192D02*
X91517258Y24248192D01*
X91517258Y24248192D02*
X91422020Y24200573D01*
X91422020Y24200573D02*
X91374401Y24152954D01*
X91374401Y24152954D02*
X91326782Y24057716D01*
X91326782Y24057716D02*
X91326782Y23772002D01*
X91326782Y23772002D02*
X91374401Y23676764D01*
X91374401Y23676764D02*
X91422020Y23629144D01*
X91422020Y23629144D02*
X91517258Y23581525D01*
X91517258Y23581525D02*
X91660115Y23581525D01*
X90755353Y23581525D02*
X90850591Y23629144D01*
X90850591Y23629144D02*
X90898210Y23676764D01*
X90898210Y23676764D02*
X90945829Y23772002D01*
X90945829Y23772002D02*
X90945829Y24057716D01*
X90945829Y24057716D02*
X90898210Y24152954D01*
X90898210Y24152954D02*
X90850591Y24200573D01*
X90850591Y24200573D02*
X90755353Y24248192D01*
X90755353Y24248192D02*
X90612496Y24248192D01*
X90612496Y24248192D02*
X90517258Y24200573D01*
X90517258Y24200573D02*
X90469639Y24152954D01*
X90469639Y24152954D02*
X90422020Y24057716D01*
X90422020Y24057716D02*
X90422020Y23772002D01*
X90422020Y23772002D02*
X90469639Y23676764D01*
X90469639Y23676764D02*
X90517258Y23629144D01*
X90517258Y23629144D02*
X90612496Y23581525D01*
X90612496Y23581525D02*
X90755353Y23581525D01*
X90136305Y24248192D02*
X89755353Y24248192D01*
X89993448Y24581525D02*
X89993448Y23724383D01*
X89993448Y23724383D02*
X89945829Y23629144D01*
X89945829Y23629144D02*
X89850591Y23581525D01*
X89850591Y23581525D02*
X89755353Y23581525D01*
X89422019Y24248192D02*
X89422019Y23248192D01*
X89422019Y24200573D02*
X89326781Y24248192D01*
X89326781Y24248192D02*
X89136305Y24248192D01*
X89136305Y24248192D02*
X89041067Y24200573D01*
X89041067Y24200573D02*
X88993448Y24152954D01*
X88993448Y24152954D02*
X88945829Y24057716D01*
X88945829Y24057716D02*
X88945829Y23772002D01*
X88945829Y23772002D02*
X88993448Y23676764D01*
X88993448Y23676764D02*
X89041067Y23629144D01*
X89041067Y23629144D02*
X89136305Y23581525D01*
X89136305Y23581525D02*
X89326781Y23581525D01*
X89326781Y23581525D02*
X89422019Y23629144D01*
X88517257Y23581525D02*
X88517257Y24248192D01*
X88517257Y24057716D02*
X88469638Y24152954D01*
X88469638Y24152954D02*
X88422019Y24200573D01*
X88422019Y24200573D02*
X88326781Y24248192D01*
X88326781Y24248192D02*
X88231543Y24248192D01*
X87898209Y23581525D02*
X87898209Y24248192D01*
X87898209Y24581525D02*
X87945828Y24533906D01*
X87945828Y24533906D02*
X87898209Y24486287D01*
X87898209Y24486287D02*
X87850590Y24533906D01*
X87850590Y24533906D02*
X87898209Y24581525D01*
X87898209Y24581525D02*
X87898209Y24486287D01*
X87422019Y24248192D02*
X87422019Y23581525D01*
X87422019Y24152954D02*
X87374400Y24200573D01*
X87374400Y24200573D02*
X87279162Y24248192D01*
X87279162Y24248192D02*
X87136305Y24248192D01*
X87136305Y24248192D02*
X87041067Y24200573D01*
X87041067Y24200573D02*
X86993448Y24105335D01*
X86993448Y24105335D02*
X86993448Y23581525D01*
X86660114Y24248192D02*
X86279162Y24248192D01*
X86517257Y24581525D02*
X86517257Y23724383D01*
X86517257Y23724383D02*
X86469638Y23629144D01*
X86469638Y23629144D02*
X86374400Y23581525D01*
X86374400Y23581525D02*
X86279162Y23581525D01*
X85326780Y24248192D02*
X84945828Y24248192D01*
X85183923Y23581525D02*
X85183923Y24438668D01*
X85183923Y24438668D02*
X85136304Y24533906D01*
X85136304Y24533906D02*
X85041066Y24581525D01*
X85041066Y24581525D02*
X84945828Y24581525D01*
X84469637Y23581525D02*
X84564875Y23629144D01*
X84564875Y23629144D02*
X84612494Y23676764D01*
X84612494Y23676764D02*
X84660113Y23772002D01*
X84660113Y23772002D02*
X84660113Y24057716D01*
X84660113Y24057716D02*
X84612494Y24152954D01*
X84612494Y24152954D02*
X84564875Y24200573D01*
X84564875Y24200573D02*
X84469637Y24248192D01*
X84469637Y24248192D02*
X84326780Y24248192D01*
X84326780Y24248192D02*
X84231542Y24200573D01*
X84231542Y24200573D02*
X84183923Y24152954D01*
X84183923Y24152954D02*
X84136304Y24057716D01*
X84136304Y24057716D02*
X84136304Y23772002D01*
X84136304Y23772002D02*
X84183923Y23676764D01*
X84183923Y23676764D02*
X84231542Y23629144D01*
X84231542Y23629144D02*
X84326780Y23581525D01*
X84326780Y23581525D02*
X84469637Y23581525D01*
X83707732Y23581525D02*
X83707732Y24248192D01*
X83707732Y24057716D02*
X83660113Y24152954D01*
X83660113Y24152954D02*
X83612494Y24200573D01*
X83612494Y24200573D02*
X83517256Y24248192D01*
X83517256Y24248192D02*
X83422018Y24248192D01*
X92707734Y22257296D02*
X92231544Y22257296D01*
X92802972Y21971581D02*
X92469639Y22971581D01*
X92469639Y22971581D02*
X92136306Y21971581D01*
X91802972Y21971581D02*
X91802972Y22638248D01*
X91802972Y22447772D02*
X91755353Y22543010D01*
X91755353Y22543010D02*
X91707734Y22590629D01*
X91707734Y22590629D02*
X91612496Y22638248D01*
X91612496Y22638248D02*
X91517258Y22638248D01*
X90755353Y21971581D02*
X90755353Y22971581D01*
X90755353Y22019200D02*
X90850591Y21971581D01*
X90850591Y21971581D02*
X91041067Y21971581D01*
X91041067Y21971581D02*
X91136305Y22019200D01*
X91136305Y22019200D02*
X91183924Y22066820D01*
X91183924Y22066820D02*
X91231543Y22162058D01*
X91231543Y22162058D02*
X91231543Y22447772D01*
X91231543Y22447772D02*
X91183924Y22543010D01*
X91183924Y22543010D02*
X91136305Y22590629D01*
X91136305Y22590629D02*
X91041067Y22638248D01*
X91041067Y22638248D02*
X90850591Y22638248D01*
X90850591Y22638248D02*
X90755353Y22590629D01*
X89850591Y22638248D02*
X89850591Y21971581D01*
X90279162Y22638248D02*
X90279162Y22114439D01*
X90279162Y22114439D02*
X90231543Y22019200D01*
X90231543Y22019200D02*
X90136305Y21971581D01*
X90136305Y21971581D02*
X89993448Y21971581D01*
X89993448Y21971581D02*
X89898210Y22019200D01*
X89898210Y22019200D02*
X89850591Y22066820D01*
X89374400Y21971581D02*
X89374400Y22638248D01*
X89374400Y22971581D02*
X89422019Y22923962D01*
X89422019Y22923962D02*
X89374400Y22876343D01*
X89374400Y22876343D02*
X89326781Y22923962D01*
X89326781Y22923962D02*
X89374400Y22971581D01*
X89374400Y22971581D02*
X89374400Y22876343D01*
X88898210Y22638248D02*
X88898210Y21971581D01*
X88898210Y22543010D02*
X88850591Y22590629D01*
X88850591Y22590629D02*
X88755353Y22638248D01*
X88755353Y22638248D02*
X88612496Y22638248D01*
X88612496Y22638248D02*
X88517258Y22590629D01*
X88517258Y22590629D02*
X88469639Y22495391D01*
X88469639Y22495391D02*
X88469639Y21971581D01*
X87850591Y21971581D02*
X87945829Y22019200D01*
X87945829Y22019200D02*
X87993448Y22066820D01*
X87993448Y22066820D02*
X88041067Y22162058D01*
X88041067Y22162058D02*
X88041067Y22447772D01*
X88041067Y22447772D02*
X87993448Y22543010D01*
X87993448Y22543010D02*
X87945829Y22590629D01*
X87945829Y22590629D02*
X87850591Y22638248D01*
X87850591Y22638248D02*
X87707734Y22638248D01*
X87707734Y22638248D02*
X87612496Y22590629D01*
X87612496Y22590629D02*
X87564877Y22543010D01*
X87564877Y22543010D02*
X87517258Y22447772D01*
X87517258Y22447772D02*
X87517258Y22162058D01*
X87517258Y22162058D02*
X87564877Y22066820D01*
X87564877Y22066820D02*
X87612496Y22019200D01*
X87612496Y22019200D02*
X87707734Y21971581D01*
X87707734Y21971581D02*
X87850591Y21971581D01*
X86326781Y21971581D02*
X86326781Y22971581D01*
X86326781Y22971581D02*
X85993448Y22257296D01*
X85993448Y22257296D02*
X85660115Y22971581D01*
X85660115Y22971581D02*
X85660115Y21971581D01*
X84802972Y22019200D02*
X84898210Y21971581D01*
X84898210Y21971581D02*
X85088686Y21971581D01*
X85088686Y21971581D02*
X85183924Y22019200D01*
X85183924Y22019200D02*
X85231543Y22114439D01*
X85231543Y22114439D02*
X85231543Y22495391D01*
X85231543Y22495391D02*
X85183924Y22590629D01*
X85183924Y22590629D02*
X85088686Y22638248D01*
X85088686Y22638248D02*
X84898210Y22638248D01*
X84898210Y22638248D02*
X84802972Y22590629D01*
X84802972Y22590629D02*
X84755353Y22495391D01*
X84755353Y22495391D02*
X84755353Y22400153D01*
X84755353Y22400153D02*
X85231543Y22304915D01*
X83898210Y22638248D02*
X83898210Y21828724D01*
X83898210Y21828724D02*
X83945829Y21733486D01*
X83945829Y21733486D02*
X83993448Y21685867D01*
X83993448Y21685867D02*
X84088686Y21638248D01*
X84088686Y21638248D02*
X84231543Y21638248D01*
X84231543Y21638248D02*
X84326781Y21685867D01*
X83898210Y22019200D02*
X83993448Y21971581D01*
X83993448Y21971581D02*
X84183924Y21971581D01*
X84183924Y21971581D02*
X84279162Y22019200D01*
X84279162Y22019200D02*
X84326781Y22066820D01*
X84326781Y22066820D02*
X84374400Y22162058D01*
X84374400Y22162058D02*
X84374400Y22447772D01*
X84374400Y22447772D02*
X84326781Y22543010D01*
X84326781Y22543010D02*
X84279162Y22590629D01*
X84279162Y22590629D02*
X84183924Y22638248D01*
X84183924Y22638248D02*
X83993448Y22638248D01*
X83993448Y22638248D02*
X83898210Y22590629D01*
X82993448Y21971581D02*
X82993448Y22495391D01*
X82993448Y22495391D02*
X83041067Y22590629D01*
X83041067Y22590629D02*
X83136305Y22638248D01*
X83136305Y22638248D02*
X83326781Y22638248D01*
X83326781Y22638248D02*
X83422019Y22590629D01*
X82993448Y22019200D02*
X83088686Y21971581D01*
X83088686Y21971581D02*
X83326781Y21971581D01*
X83326781Y21971581D02*
X83422019Y22019200D01*
X83422019Y22019200D02*
X83469638Y22114439D01*
X83469638Y22114439D02*
X83469638Y22209677D01*
X83469638Y22209677D02*
X83422019Y22304915D01*
X83422019Y22304915D02*
X83326781Y22352534D01*
X83326781Y22352534D02*
X83088686Y22352534D01*
X83088686Y22352534D02*
X82993448Y22400153D01*
X82564876Y22876343D02*
X82517257Y22923962D01*
X82517257Y22923962D02*
X82422019Y22971581D01*
X82422019Y22971581D02*
X82183924Y22971581D01*
X82183924Y22971581D02*
X82088686Y22923962D01*
X82088686Y22923962D02*
X82041067Y22876343D01*
X82041067Y22876343D02*
X81993448Y22781105D01*
X81993448Y22781105D02*
X81993448Y22685867D01*
X81993448Y22685867D02*
X82041067Y22543010D01*
X82041067Y22543010D02*
X82612495Y21971581D01*
X82612495Y21971581D02*
X81993448Y21971581D01*
X81088686Y22971581D02*
X81564876Y22971581D01*
X81564876Y22971581D02*
X81612495Y22495391D01*
X81612495Y22495391D02*
X81564876Y22543010D01*
X81564876Y22543010D02*
X81469638Y22590629D01*
X81469638Y22590629D02*
X81231543Y22590629D01*
X81231543Y22590629D02*
X81136305Y22543010D01*
X81136305Y22543010D02*
X81088686Y22495391D01*
X81088686Y22495391D02*
X81041067Y22400153D01*
X81041067Y22400153D02*
X81041067Y22162058D01*
X81041067Y22162058D02*
X81088686Y22066820D01*
X81088686Y22066820D02*
X81136305Y22019200D01*
X81136305Y22019200D02*
X81231543Y21971581D01*
X81231543Y21971581D02*
X81469638Y21971581D01*
X81469638Y21971581D02*
X81564876Y22019200D01*
X81564876Y22019200D02*
X81612495Y22066820D01*
X80183924Y22971581D02*
X80374400Y22971581D01*
X80374400Y22971581D02*
X80469638Y22923962D01*
X80469638Y22923962D02*
X80517257Y22876343D01*
X80517257Y22876343D02*
X80612495Y22733486D01*
X80612495Y22733486D02*
X80660114Y22543010D01*
X80660114Y22543010D02*
X80660114Y22162058D01*
X80660114Y22162058D02*
X80612495Y22066820D01*
X80612495Y22066820D02*
X80564876Y22019200D01*
X80564876Y22019200D02*
X80469638Y21971581D01*
X80469638Y21971581D02*
X80279162Y21971581D01*
X80279162Y21971581D02*
X80183924Y22019200D01*
X80183924Y22019200D02*
X80136305Y22066820D01*
X80136305Y22066820D02*
X80088686Y22162058D01*
X80088686Y22162058D02*
X80088686Y22400153D01*
X80088686Y22400153D02*
X80136305Y22495391D01*
X80136305Y22495391D02*
X80183924Y22543010D01*
X80183924Y22543010D02*
X80279162Y22590629D01*
X80279162Y22590629D02*
X80469638Y22590629D01*
X80469638Y22590629D02*
X80564876Y22543010D01*
X80564876Y22543010D02*
X80612495Y22495391D01*
X80612495Y22495391D02*
X80660114Y22400153D01*
X79469638Y22971581D02*
X79374400Y22971581D01*
X79374400Y22971581D02*
X79279162Y22923962D01*
X79279162Y22923962D02*
X79231543Y22876343D01*
X79231543Y22876343D02*
X79183924Y22781105D01*
X79183924Y22781105D02*
X79136305Y22590629D01*
X79136305Y22590629D02*
X79136305Y22352534D01*
X79136305Y22352534D02*
X79183924Y22162058D01*
X79183924Y22162058D02*
X79231543Y22066820D01*
X79231543Y22066820D02*
X79279162Y22019200D01*
X79279162Y22019200D02*
X79374400Y21971581D01*
X79374400Y21971581D02*
X79469638Y21971581D01*
X79469638Y21971581D02*
X79564876Y22019200D01*
X79564876Y22019200D02*
X79612495Y22066820D01*
X79612495Y22066820D02*
X79660114Y22162058D01*
X79660114Y22162058D02*
X79707733Y22352534D01*
X79707733Y22352534D02*
X79707733Y22590629D01*
X79707733Y22590629D02*
X79660114Y22781105D01*
X79660114Y22781105D02*
X79612495Y22876343D01*
X79612495Y22876343D02*
X79564876Y22923962D01*
X79564876Y22923962D02*
X79469638Y22971581D01*
X93676115Y36154181D02*
X93676115Y35344658D01*
X93676115Y35344658D02*
X93628496Y35249420D01*
X93628496Y35249420D02*
X93580877Y35201800D01*
X93580877Y35201800D02*
X93485639Y35154181D01*
X93485639Y35154181D02*
X93295163Y35154181D01*
X93295163Y35154181D02*
X93199925Y35201800D01*
X93199925Y35201800D02*
X93152306Y35249420D01*
X93152306Y35249420D02*
X93104687Y35344658D01*
X93104687Y35344658D02*
X93104687Y36154181D01*
X92676115Y35201800D02*
X92533258Y35154181D01*
X92533258Y35154181D02*
X92295163Y35154181D01*
X92295163Y35154181D02*
X92199925Y35201800D01*
X92199925Y35201800D02*
X92152306Y35249420D01*
X92152306Y35249420D02*
X92104687Y35344658D01*
X92104687Y35344658D02*
X92104687Y35439896D01*
X92104687Y35439896D02*
X92152306Y35535134D01*
X92152306Y35535134D02*
X92199925Y35582753D01*
X92199925Y35582753D02*
X92295163Y35630372D01*
X92295163Y35630372D02*
X92485639Y35677991D01*
X92485639Y35677991D02*
X92580877Y35725610D01*
X92580877Y35725610D02*
X92628496Y35773229D01*
X92628496Y35773229D02*
X92676115Y35868467D01*
X92676115Y35868467D02*
X92676115Y35963705D01*
X92676115Y35963705D02*
X92628496Y36058943D01*
X92628496Y36058943D02*
X92580877Y36106562D01*
X92580877Y36106562D02*
X92485639Y36154181D01*
X92485639Y36154181D02*
X92247544Y36154181D01*
X92247544Y36154181D02*
X92104687Y36106562D01*
X91342782Y35677991D02*
X91199925Y35630372D01*
X91199925Y35630372D02*
X91152306Y35582753D01*
X91152306Y35582753D02*
X91104687Y35487515D01*
X91104687Y35487515D02*
X91104687Y35344658D01*
X91104687Y35344658D02*
X91152306Y35249420D01*
X91152306Y35249420D02*
X91199925Y35201800D01*
X91199925Y35201800D02*
X91295163Y35154181D01*
X91295163Y35154181D02*
X91676115Y35154181D01*
X91676115Y35154181D02*
X91676115Y36154181D01*
X91676115Y36154181D02*
X91342782Y36154181D01*
X91342782Y36154181D02*
X91247544Y36106562D01*
X91247544Y36106562D02*
X91199925Y36058943D01*
X91199925Y36058943D02*
X91152306Y35963705D01*
X91152306Y35963705D02*
X91152306Y35868467D01*
X91152306Y35868467D02*
X91199925Y35773229D01*
X91199925Y35773229D02*
X91247544Y35725610D01*
X91247544Y35725610D02*
X91342782Y35677991D01*
X91342782Y35677991D02*
X91676115Y35677991D01*
X89485639Y35201800D02*
X89580877Y35154181D01*
X89580877Y35154181D02*
X89771353Y35154181D01*
X89771353Y35154181D02*
X89866591Y35201800D01*
X89866591Y35201800D02*
X89914210Y35249420D01*
X89914210Y35249420D02*
X89961829Y35344658D01*
X89961829Y35344658D02*
X89961829Y35630372D01*
X89961829Y35630372D02*
X89914210Y35725610D01*
X89914210Y35725610D02*
X89866591Y35773229D01*
X89866591Y35773229D02*
X89771353Y35820848D01*
X89771353Y35820848D02*
X89580877Y35820848D01*
X89580877Y35820848D02*
X89485639Y35773229D01*
X88914210Y35154181D02*
X89009448Y35201800D01*
X89009448Y35201800D02*
X89057067Y35249420D01*
X89057067Y35249420D02*
X89104686Y35344658D01*
X89104686Y35344658D02*
X89104686Y35630372D01*
X89104686Y35630372D02*
X89057067Y35725610D01*
X89057067Y35725610D02*
X89009448Y35773229D01*
X89009448Y35773229D02*
X88914210Y35820848D01*
X88914210Y35820848D02*
X88771353Y35820848D01*
X88771353Y35820848D02*
X88676115Y35773229D01*
X88676115Y35773229D02*
X88628496Y35725610D01*
X88628496Y35725610D02*
X88580877Y35630372D01*
X88580877Y35630372D02*
X88580877Y35344658D01*
X88580877Y35344658D02*
X88628496Y35249420D01*
X88628496Y35249420D02*
X88676115Y35201800D01*
X88676115Y35201800D02*
X88771353Y35154181D01*
X88771353Y35154181D02*
X88914210Y35154181D01*
X88152305Y35820848D02*
X88152305Y35154181D01*
X88152305Y35725610D02*
X88104686Y35773229D01*
X88104686Y35773229D02*
X88009448Y35820848D01*
X88009448Y35820848D02*
X87866591Y35820848D01*
X87866591Y35820848D02*
X87771353Y35773229D01*
X87771353Y35773229D02*
X87723734Y35677991D01*
X87723734Y35677991D02*
X87723734Y35154181D01*
X87247543Y35820848D02*
X87247543Y35154181D01*
X87247543Y35725610D02*
X87199924Y35773229D01*
X87199924Y35773229D02*
X87104686Y35820848D01*
X87104686Y35820848D02*
X86961829Y35820848D01*
X86961829Y35820848D02*
X86866591Y35773229D01*
X86866591Y35773229D02*
X86818972Y35677991D01*
X86818972Y35677991D02*
X86818972Y35154181D01*
D12*
X94064285Y18880896D02*
X93588095Y18880896D01*
X94159523Y18595181D02*
X93826190Y19595181D01*
X93826190Y19595181D02*
X93492857Y18595181D01*
X92635714Y18595181D02*
X93207142Y18595181D01*
X92921428Y18595181D02*
X92921428Y19595181D01*
X92921428Y19595181D02*
X93016666Y19452324D01*
X93016666Y19452324D02*
X93111904Y19357086D01*
X93111904Y19357086D02*
X93207142Y19309467D01*
X33406000Y41042420D02*
X33453619Y40994800D01*
X33453619Y40994800D02*
X33406000Y40947181D01*
X33406000Y40947181D02*
X33358381Y40994800D01*
X33358381Y40994800D02*
X33406000Y41042420D01*
X33406000Y41042420D02*
X33406000Y40947181D01*
X31651905Y24965820D02*
X31651905Y23965820D01*
X31651905Y23965820D02*
X31890000Y23965820D01*
X31890000Y23965820D02*
X32032857Y24013439D01*
X32032857Y24013439D02*
X32128095Y24108677D01*
X32128095Y24108677D02*
X32175714Y24203915D01*
X32175714Y24203915D02*
X32223333Y24394391D01*
X32223333Y24394391D02*
X32223333Y24537248D01*
X32223333Y24537248D02*
X32175714Y24727724D01*
X32175714Y24727724D02*
X32128095Y24822962D01*
X32128095Y24822962D02*
X32032857Y24918200D01*
X32032857Y24918200D02*
X31890000Y24965820D01*
X31890000Y24965820D02*
X31651905Y24965820D01*
X32842381Y23965820D02*
X32937619Y23965820D01*
X32937619Y23965820D02*
X33032857Y24013439D01*
X33032857Y24013439D02*
X33080476Y24061058D01*
X33080476Y24061058D02*
X33128095Y24156296D01*
X33128095Y24156296D02*
X33175714Y24346772D01*
X33175714Y24346772D02*
X33175714Y24584867D01*
X33175714Y24584867D02*
X33128095Y24775343D01*
X33128095Y24775343D02*
X33080476Y24870581D01*
X33080476Y24870581D02*
X33032857Y24918200D01*
X33032857Y24918200D02*
X32937619Y24965820D01*
X32937619Y24965820D02*
X32842381Y24965820D01*
X32842381Y24965820D02*
X32747143Y24918200D01*
X32747143Y24918200D02*
X32699524Y24870581D01*
X32699524Y24870581D02*
X32651905Y24775343D01*
X32651905Y24775343D02*
X32604286Y24584867D01*
X32604286Y24584867D02*
X32604286Y24346772D01*
X32604286Y24346772D02*
X32651905Y24156296D01*
X32651905Y24156296D02*
X32699524Y24061058D01*
X32699524Y24061058D02*
X32747143Y24013439D01*
X32747143Y24013439D02*
X32842381Y23965820D01*
X64571237Y-6810819D02*
X64571237Y-5810819D01*
X64571237Y-5810819D02*
X63999809Y-6810819D01*
X63999809Y-6810819D02*
X63999809Y-5810819D01*
X63761714Y-6906057D02*
X62999809Y-6906057D01*
X62809332Y-6763200D02*
X62666475Y-6810819D01*
X62666475Y-6810819D02*
X62428380Y-6810819D01*
X62428380Y-6810819D02*
X62333142Y-6763200D01*
X62333142Y-6763200D02*
X62285523Y-6715580D01*
X62285523Y-6715580D02*
X62237904Y-6620342D01*
X62237904Y-6620342D02*
X62237904Y-6525104D01*
X62237904Y-6525104D02*
X62285523Y-6429866D01*
X62285523Y-6429866D02*
X62333142Y-6382247D01*
X62333142Y-6382247D02*
X62428380Y-6334628D01*
X62428380Y-6334628D02*
X62618856Y-6287009D01*
X62618856Y-6287009D02*
X62714094Y-6239390D01*
X62714094Y-6239390D02*
X62761713Y-6191771D01*
X62761713Y-6191771D02*
X62809332Y-6096533D01*
X62809332Y-6096533D02*
X62809332Y-6001295D01*
X62809332Y-6001295D02*
X62761713Y-5906057D01*
X62761713Y-5906057D02*
X62714094Y-5858438D01*
X62714094Y-5858438D02*
X62618856Y-5810819D01*
X62618856Y-5810819D02*
X62380761Y-5810819D01*
X62380761Y-5810819D02*
X62237904Y-5858438D01*
X61856951Y-6763200D02*
X61714094Y-6810819D01*
X61714094Y-6810819D02*
X61475999Y-6810819D01*
X61475999Y-6810819D02*
X61380761Y-6763200D01*
X61380761Y-6763200D02*
X61333142Y-6715580D01*
X61333142Y-6715580D02*
X61285523Y-6620342D01*
X61285523Y-6620342D02*
X61285523Y-6525104D01*
X61285523Y-6525104D02*
X61333142Y-6429866D01*
X61333142Y-6429866D02*
X61380761Y-6382247D01*
X61380761Y-6382247D02*
X61475999Y-6334628D01*
X61475999Y-6334628D02*
X61666475Y-6287009D01*
X61666475Y-6287009D02*
X61761713Y-6239390D01*
X61761713Y-6239390D02*
X61809332Y-6191771D01*
X61809332Y-6191771D02*
X61856951Y-6096533D01*
X61856951Y-6096533D02*
X61856951Y-6001295D01*
X61856951Y-6001295D02*
X61809332Y-5906057D01*
X61809332Y-5906057D02*
X61761713Y-5858438D01*
X61761713Y-5858438D02*
X61666475Y-5810819D01*
X61666475Y-5810819D02*
X61428380Y-5810819D01*
X61428380Y-5810819D02*
X61285523Y-5858438D01*
X60285523Y-6810819D02*
X60618856Y-6334628D01*
X60856951Y-6810819D02*
X60856951Y-5810819D01*
X60856951Y-5810819D02*
X60475999Y-5810819D01*
X60475999Y-5810819D02*
X60380761Y-5858438D01*
X60380761Y-5858438D02*
X60333142Y-5906057D01*
X60333142Y-5906057D02*
X60285523Y-6001295D01*
X60285523Y-6001295D02*
X60285523Y-6144152D01*
X60285523Y-6144152D02*
X60333142Y-6239390D01*
X60333142Y-6239390D02*
X60380761Y-6287009D01*
X60380761Y-6287009D02*
X60475999Y-6334628D01*
X60475999Y-6334628D02*
X60856951Y-6334628D01*
X59333142Y-6810819D02*
X59904570Y-6810819D01*
X59618856Y-6810819D02*
X59618856Y-5810819D01*
X59618856Y-5810819D02*
X59714094Y-5953676D01*
X59714094Y-5953676D02*
X59809332Y-6048914D01*
X59809332Y-6048914D02*
X59904570Y-6096533D01*
X84446666Y-6668819D02*
X84446666Y-5668819D01*
X84446666Y-5668819D02*
X84065714Y-5668819D01*
X84065714Y-5668819D02*
X83970476Y-5716438D01*
X83970476Y-5716438D02*
X83922857Y-5764057D01*
X83922857Y-5764057D02*
X83875238Y-5859295D01*
X83875238Y-5859295D02*
X83875238Y-6002152D01*
X83875238Y-6002152D02*
X83922857Y-6097390D01*
X83922857Y-6097390D02*
X83970476Y-6145009D01*
X83970476Y-6145009D02*
X84065714Y-6192628D01*
X84065714Y-6192628D02*
X84446666Y-6192628D01*
X83684762Y-6764057D02*
X82922857Y-6764057D01*
X82684761Y-6668819D02*
X82684761Y-5668819D01*
X82684761Y-5668819D02*
X82446666Y-5668819D01*
X82446666Y-5668819D02*
X82303809Y-5716438D01*
X82303809Y-5716438D02*
X82208571Y-5811676D01*
X82208571Y-5811676D02*
X82160952Y-5906914D01*
X82160952Y-5906914D02*
X82113333Y-6097390D01*
X82113333Y-6097390D02*
X82113333Y-6240247D01*
X82113333Y-6240247D02*
X82160952Y-6430723D01*
X82160952Y-6430723D02*
X82208571Y-6525961D01*
X82208571Y-6525961D02*
X82303809Y-6621200D01*
X82303809Y-6621200D02*
X82446666Y-6668819D01*
X82446666Y-6668819D02*
X82684761Y-6668819D01*
X81494285Y-5668819D02*
X81303809Y-5668819D01*
X81303809Y-5668819D02*
X81208571Y-5716438D01*
X81208571Y-5716438D02*
X81113333Y-5811676D01*
X81113333Y-5811676D02*
X81065714Y-6002152D01*
X81065714Y-6002152D02*
X81065714Y-6335485D01*
X81065714Y-6335485D02*
X81113333Y-6525961D01*
X81113333Y-6525961D02*
X81208571Y-6621200D01*
X81208571Y-6621200D02*
X81303809Y-6668819D01*
X81303809Y-6668819D02*
X81494285Y-6668819D01*
X81494285Y-6668819D02*
X81589523Y-6621200D01*
X81589523Y-6621200D02*
X81684761Y-6525961D01*
X81684761Y-6525961D02*
X81732380Y-6335485D01*
X81732380Y-6335485D02*
X81732380Y-6002152D01*
X81732380Y-6002152D02*
X81684761Y-5811676D01*
X81684761Y-5811676D02*
X81589523Y-5716438D01*
X81589523Y-5716438D02*
X81494285Y-5668819D01*
X80446666Y-5668819D02*
X80256190Y-5668819D01*
X80256190Y-5668819D02*
X80160952Y-5716438D01*
X80160952Y-5716438D02*
X80065714Y-5811676D01*
X80065714Y-5811676D02*
X80018095Y-6002152D01*
X80018095Y-6002152D02*
X80018095Y-6335485D01*
X80018095Y-6335485D02*
X80065714Y-6525961D01*
X80065714Y-6525961D02*
X80160952Y-6621200D01*
X80160952Y-6621200D02*
X80256190Y-6668819D01*
X80256190Y-6668819D02*
X80446666Y-6668819D01*
X80446666Y-6668819D02*
X80541904Y-6621200D01*
X80541904Y-6621200D02*
X80637142Y-6525961D01*
X80637142Y-6525961D02*
X80684761Y-6335485D01*
X80684761Y-6335485D02*
X80684761Y-6002152D01*
X80684761Y-6002152D02*
X80637142Y-5811676D01*
X80637142Y-5811676D02*
X80541904Y-5716438D01*
X80541904Y-5716438D02*
X80446666Y-5668819D01*
X79018095Y-6668819D02*
X79351428Y-6192628D01*
X79589523Y-6668819D02*
X79589523Y-5668819D01*
X79589523Y-5668819D02*
X79208571Y-5668819D01*
X79208571Y-5668819D02*
X79113333Y-5716438D01*
X79113333Y-5716438D02*
X79065714Y-5764057D01*
X79065714Y-5764057D02*
X79018095Y-5859295D01*
X79018095Y-5859295D02*
X79018095Y-6002152D01*
X79018095Y-6002152D02*
X79065714Y-6097390D01*
X79065714Y-6097390D02*
X79113333Y-6145009D01*
X79113333Y-6145009D02*
X79208571Y-6192628D01*
X79208571Y-6192628D02*
X79589523Y-6192628D01*
X78065714Y-6668819D02*
X78637142Y-6668819D01*
X78351428Y-6668819D02*
X78351428Y-5668819D01*
X78351428Y-5668819D02*
X78446666Y-5811676D01*
X78446666Y-5811676D02*
X78541904Y-5906914D01*
X78541904Y-5906914D02*
X78637142Y-5954533D01*
%TO.C,A1*%
X-5710000Y69596000D02*
X-5710000Y35306000D01*
X-5710000Y35306000D02*
X-3170000Y32766000D01*
D10*
X-3170000Y73406000D02*
X-3170000Y71906000D01*
D12*
X-3170000Y71906000D02*
X-5710000Y69596000D01*
X-3170000Y32766000D02*
X-3170000Y21590000D01*
X-1646000Y20066000D02*
X-3170000Y21590000D01*
X95890000Y73406000D02*
X-3170000Y73406000D01*
X95890000Y20066000D02*
X-1646000Y20066000D01*
X95890000Y20066000D02*
X95890000Y73406000D01*
D13*
%TO.C,N_SSR1*%
X56856000Y10534000D02*
X56856000Y-2326000D01*
X56856000Y-3826000D02*
X56856000Y-5356000D01*
X56861000Y-2326000D02*
X57386000Y-2326000D01*
X57166000Y1174000D02*
X56916000Y1174000D01*
X57386000Y-2326000D02*
X57386000Y-3826000D01*
X57386000Y-3826000D02*
X56856000Y-3826000D01*
X57716000Y1174000D02*
X57466000Y1174000D01*
X58266000Y1174000D02*
X58016000Y1174000D01*
X58816000Y1174000D02*
X58566000Y1174000D01*
X58936000Y12824000D02*
X58936000Y10574000D01*
X59136000Y13024000D02*
X58936000Y12824000D01*
X59366000Y1174000D02*
X59116000Y1174000D01*
X59736000Y13024000D02*
X59936000Y12824000D01*
X59916000Y1174000D02*
X59666000Y1174000D01*
X59936000Y12824000D02*
X59936000Y10574000D01*
X60466000Y1174000D02*
X60216000Y1174000D01*
X61016000Y1174000D02*
X60766000Y1174000D01*
X61476000Y12824000D02*
X61476000Y10574000D01*
X61566000Y1174000D02*
X61316000Y1174000D01*
X61676000Y13024000D02*
X61476000Y12824000D01*
X62116000Y1174000D02*
X61866000Y1174000D01*
X62276000Y13024000D02*
X62476000Y12824000D01*
X62476000Y12824000D02*
X62476000Y10574000D01*
X62666000Y1174000D02*
X62416000Y1174000D01*
X63216000Y1174000D02*
X62966000Y1174000D01*
X63766000Y1174000D02*
X63516000Y1174000D01*
X64016000Y12824000D02*
X64016000Y10574000D01*
X64216000Y13024000D02*
X64016000Y12824000D01*
X64316000Y1174000D02*
X64066000Y1174000D01*
X64816000Y13024000D02*
X65016000Y12824000D01*
X64866000Y1174000D02*
X64616000Y1174000D01*
X65016000Y12824000D02*
X65016000Y10574000D01*
X65416000Y1174000D02*
X65166000Y1174000D01*
X65966000Y1174000D02*
X65716000Y1174000D01*
X66516000Y1174000D02*
X66266000Y1174000D01*
X66536000Y-2326000D02*
X67096000Y-2326000D01*
X66536000Y-3826000D02*
X66536000Y-2326000D01*
X67066000Y1174000D02*
X66816000Y1174000D01*
X67096000Y10534000D02*
X56856000Y10534000D01*
X67096000Y10534000D02*
X67096000Y-2326000D01*
X67096000Y-3826000D02*
X66536000Y-3826000D01*
X67096000Y-3826000D02*
X67096000Y-5356000D01*
X67096000Y-5356000D02*
X56856000Y-5356000D01*
%TO.C,P_DOOR1*%
X76160000Y10676000D02*
X76160000Y-2184000D01*
X76160000Y-3684000D02*
X76160000Y-5214000D01*
X76165000Y-2184000D02*
X76690000Y-2184000D01*
X76470000Y1316000D02*
X76220000Y1316000D01*
X76690000Y-2184000D02*
X76690000Y-3684000D01*
X76690000Y-3684000D02*
X76160000Y-3684000D01*
X77020000Y1316000D02*
X76770000Y1316000D01*
X77570000Y1316000D02*
X77320000Y1316000D01*
X78120000Y1316000D02*
X77870000Y1316000D01*
X78240000Y12966000D02*
X78240000Y10716000D01*
X78440000Y13166000D02*
X78240000Y12966000D01*
X78670000Y1316000D02*
X78420000Y1316000D01*
X79040000Y13166000D02*
X79240000Y12966000D01*
X79220000Y1316000D02*
X78970000Y1316000D01*
X79240000Y12966000D02*
X79240000Y10716000D01*
X79770000Y1316000D02*
X79520000Y1316000D01*
X80320000Y1316000D02*
X80070000Y1316000D01*
X80780000Y12966000D02*
X80780000Y10716000D01*
X80870000Y1316000D02*
X80620000Y1316000D01*
X80980000Y13166000D02*
X80780000Y12966000D01*
X81420000Y1316000D02*
X81170000Y1316000D01*
X81580000Y13166000D02*
X81780000Y12966000D01*
X81780000Y12966000D02*
X81780000Y10716000D01*
X81970000Y1316000D02*
X81720000Y1316000D01*
X82520000Y1316000D02*
X82270000Y1316000D01*
X83070000Y1316000D02*
X82820000Y1316000D01*
X83320000Y12966000D02*
X83320000Y10716000D01*
X83520000Y13166000D02*
X83320000Y12966000D01*
X83620000Y1316000D02*
X83370000Y1316000D01*
X84120000Y13166000D02*
X84320000Y12966000D01*
X84170000Y1316000D02*
X83920000Y1316000D01*
X84320000Y12966000D02*
X84320000Y10716000D01*
X84720000Y1316000D02*
X84470000Y1316000D01*
X85270000Y1316000D02*
X85020000Y1316000D01*
X85820000Y1316000D02*
X85570000Y1316000D01*
X85840000Y-2184000D02*
X86400000Y-2184000D01*
X85840000Y-3684000D02*
X85840000Y-2184000D01*
X86370000Y1316000D02*
X86120000Y1316000D01*
X86400000Y10676000D02*
X76160000Y10676000D01*
X86400000Y10676000D02*
X86400000Y-2184000D01*
X86400000Y-3684000D02*
X85840000Y-3684000D01*
X86400000Y-3684000D02*
X86400000Y-5214000D01*
X86400000Y-5214000D02*
X76160000Y-5214000D01*
%TD*%
M02*
