M48
; DRILL file {KiCad 8.0.5} date 2024-12-28T12:09:25+0100
; FORMAT={-:-/ absolute / inch / decimal}
; #@! TF.CreationDate,2024-12-28T12:09:25+01:00
; #@! TF.GenerationSoftware,Kicad,Pcbnew,8.0.5
; #@! TF.FileFunction,Plated,1,2,PTH
FMAT,2
INCH
; #@! TA.AperFunction,Plated,PTH,ViaDrill
T1C0.0118
; #@! TA.AperFunction,Plated,PTH,ViaDrill
T2C0.0197
; #@! TA.AperFunction,Plated,PTH,ComponentDrill
T3C0.0315
; #@! TA.AperFunction,Plated,PTH,ComponentDrill
T4C0.0394
; #@! TA.AperFunction,Plated,PTH,ComponentDrill
T5C0.0400
; #@! TA.AperFunction,Plated,PTH,ComponentDrill
T6C0.0433
; #@! TA.AperFunction,Plated,PTH,ComponentDrill
T7C0.0512
; #@! TA.AperFunction,Plated,PTH,ComponentDrill
T8C0.1260
%
G90
G05
T1
X0.076Y0.712
X0.144Y0.769
X0.42Y3.0
X0.44Y0.66
X0.52Y0.74
X0.62Y0.74
X0.72Y0.72
X0.8Y0.68
X0.844Y1.593
X0.846Y2.651
X0.88Y0.64
X0.92Y3.0
X0.948Y1.591
X0.95Y2.649
X1.048Y1.593
X1.05Y2.651
X1.32Y2.88
X1.891Y3.011
X1.891Y2.865
X2.003Y1.854
X2.126Y1.856
X2.345Y2.433
X2.405Y2.36
X2.68Y2.02
X2.86Y2.02
X2.96Y2.02
X3.056Y0.961
X3.1Y2.02
X3.199Y0.899
X3.22Y2.02
X3.289Y0.809
X3.38Y2.02
X3.435Y0.669
T2
X3.04Y2.54
T3
X-0.02Y3.01
X-0.02Y2.71
X0.21Y2.5
X0.21Y2.28
X0.41Y1.22
X0.41Y1.06
X0.509Y1.46
X0.51Y2.5
X0.51Y2.28
X0.53Y3.36
X0.6074Y1.46
X0.71Y1.22
X0.71Y1.06
X0.83Y3.36
X1.98Y0.65
X1.98Y0.35
X2.19Y0.72
X2.2902Y0.3772
X2.3902Y0.3772
X2.49Y0.72
X2.74Y0.65
X2.74Y0.35
X2.78Y1.49
X2.78Y1.19
X3.0488Y0.38
X3.1488Y0.38
T4
X0.255Y3.12
X0.355Y3.12
X0.455Y3.12
X0.5Y0.28
X0.555Y3.12
X0.6Y0.28
X0.655Y3.12
X0.7Y0.28
X0.755Y3.12
X0.8Y0.28
X0.855Y3.12
X0.9Y0.28
X0.955Y3.12
X1.3Y3.12
X1.4Y3.12
X1.49Y0.4
X1.49Y0.12
X1.5Y3.12
X1.59Y0.4
X1.59Y0.12
X1.6Y3.12
X1.7Y3.12
X1.8Y3.12
T5
X-0.0248Y2.59
X-0.0248Y2.49
X-0.0248Y2.39
X-0.0248Y2.29
X-0.0248Y2.19
X-0.0248Y2.09
X-0.0248Y1.99
X-0.0248Y1.89
X-0.0248Y1.79
X-0.0248Y1.69
X-0.0248Y1.59
X-0.0248Y1.49
X-0.0248Y1.39
X-0.0248Y1.29
X-0.0248Y1.19
X-0.0248Y1.09
X-0.0248Y0.99
X-0.0248Y0.89
X0.0752Y2.59
X0.0752Y2.49
X0.0752Y2.39
X0.0752Y2.29
X0.0752Y2.19
X0.0752Y2.09
X0.0752Y1.99
X0.0752Y1.89
X0.0752Y1.79
X0.0752Y1.69
X0.0752Y1.59
X0.0752Y1.49
X0.0752Y1.39
X0.0752Y1.29
X0.0752Y1.19
X0.0752Y1.09
X0.0752Y0.99
X0.0752Y0.89
X0.1752Y2.79
X0.2752Y2.79
X0.3752Y2.79
X0.3752Y0.89
X0.4752Y2.79
X0.4752Y0.89
X0.5752Y2.79
X0.5752Y0.89
X0.6752Y2.79
X0.6752Y0.89
X0.7752Y2.79
X0.7752Y0.89
X0.8752Y2.79
X0.8752Y0.89
X0.9752Y0.89
X1.0752Y2.79
X1.0752Y0.89
X1.1702Y1.89
X1.1702Y1.79
X1.1702Y1.69
X1.1752Y2.79
X1.2702Y1.89
X1.2702Y1.79
X1.2702Y1.69
X1.2752Y2.79
X1.2752Y0.89
X1.3752Y2.79
X1.3752Y0.89
X1.4752Y2.79
X1.4752Y0.89
X1.5752Y2.79
X1.5752Y0.89
X1.6752Y2.79
X1.6752Y0.89
X1.7752Y2.79
X1.7752Y0.89
X1.8752Y0.89
X1.9752Y2.79
X1.9752Y0.89
X2.0752Y2.79
X2.1352Y0.89
X2.1752Y2.79
X2.2352Y0.89
X2.2752Y2.79
X2.3352Y0.89
X2.3752Y2.79
X2.4352Y0.89
X2.4752Y2.79
X2.5352Y0.89
X2.5752Y2.79
X2.6352Y0.89
X2.6752Y2.79
X2.7352Y0.89
X2.8352Y0.89
X2.9352Y0.89
X3.0352Y0.89
T6
X2.24Y0.56
X2.34Y0.56
X2.44Y0.56
X3.0Y0.5656
X3.1Y0.5656
X3.2Y0.5656
T7
X2.1447Y3.3003
X2.3416Y3.3003
X2.6231Y3.3003
X2.82Y3.3003
X3.1031Y3.3003
X3.3Y3.3003
T8
X0.0Y3.36
X0.0Y0.0
X3.552Y3.36
X3.552Y0.0
M30
